<svg xmlns="http://www.w3.org/2000/svg" xmlns:xlink="http://www.w3.org/1999/xlink" width="500" zoomAndPan="magnify" viewBox="0 0 375 374.999991" height="500" preserveAspectRatio="xMidYMid meet" version="1.0"><defs><g/><clipPath id="d156a1c033"><path d="M 9.507812 126.957031 L 152.757812 126.957031 L 152.757812 238.707031 L 9.507812 238.707031 Z M 9.507812 126.957031 " clip-rule="nonzero"/></clipPath><clipPath id="67fc529be3"><path d="M 0.507812 22 L 143.429688 22 L 143.429688 112.707031 L 0.507812 112.707031 Z M 0.507812 22 " clip-rule="nonzero"/></clipPath><clipPath id="8914f9574c"><path d="M 65 0.957031 L 90 0.957031 L 90 26 L 65 26 Z M 65 0.957031 " clip-rule="nonzero"/></clipPath><clipPath id="5f431d9407"><rect x="0" width="144" y="0" height="113"/></clipPath><clipPath id="df0cd5ac98"><rect x="0" width="227" y="0" height="62"/></clipPath></defs><rect x="-37.5" width="450" fill="#ffffff" y="-37.499999" height="449.999989" fill-opacity="1"/><rect x="-37.5" width="450" fill="#ffffff" y="-37.499999" height="449.999989" fill-opacity="1"/><g clip-path="url(#d156a1c033)"><g transform="matrix(1, 0, 0, 1, 9, 126)"><g clip-path="url(#5f431d9407)"><path fill="#aefe02" d="M 73.28125 60.992188 C 76.933594 62.652344 81.539062 64.777344 87.316406 67.492188 C 110.617188 78.449219 96.542969 101.660156 58.953125 109.4375 C 58.953125 109.4375 120.183594 79.589844 66.25 73.019531 C 66.929688 71.855469 67.609375 70.671875 68.296875 69.476562 C 69.894531 66.699219 71.511719 63.882812 73.28125 60.992188 " fill-opacity="1" fill-rule="nonzero"/><g clip-path="url(#67fc529be3)"><path fill="#aefe02" d="M 56.410156 55.765625 C 71.519531 19.820312 120.464844 13.195312 143.386719 34.675781 C 143.386719 34.675781 107.710938 10.804688 81.234375 43.046875 C 54.757812 75.292969 63.191406 96.382812 0.566406 112.785156 C 0.566406 112.785156 37.042969 101.851562 56.410156 55.765625 " fill-opacity="1" fill-rule="nonzero"/></g><g clip-path="url(#8914f9574c)"><path fill="#aefe02" d="M 65.261719 13.320312 C 65.261719 20.148438 70.796875 25.683594 77.625 25.683594 C 84.453125 25.683594 89.984375 20.148438 89.984375 13.320312 C 89.984375 6.492188 84.453125 0.957031 77.625 0.957031 C 70.796875 0.957031 65.261719 6.492188 65.261719 13.320312 " fill-opacity="1" fill-rule="nonzero"/></g></g></g></g><g transform="matrix(1, 0, 0, 1, 126, 165)"><g clip-path="url(#df0cd5ac98)"><g fill="#ffffff" fill-opacity="1"><g transform="translate(1.043946, 49.15589)"><g><path d="M 9.375 0 L 0.09375 0 L 12.84375 -37.265625 L 22.328125 -37.265625 L 35.0625 0 L 25.796875 0 L 23.78125 -6.6875 L 11.375 -6.6875 Z M 17.578125 -27.546875 L 13.671875 -14.265625 L 21.484375 -14.265625 Z M 17.578125 -27.546875 "/></g></g></g><g fill="#ffffff" fill-opacity="1"><g transform="translate(40.801402, 49.15589)"><g><path d="M 28.375 0 L 2.9375 0 L 2.9375 -37.265625 L 28.375 -37.265625 L 28.375 -29.453125 L 11.671875 -29.453125 L 11.671875 -22.515625 L 26.765625 -22.515625 L 26.765625 -14.75 L 11.671875 -14.75 L 11.671875 -7.8125 L 28.375 -7.8125 Z M 28.375 0 "/></g></g></g><g fill="#ffffff" fill-opacity="1"><g transform="translate(75.8701, 49.15589)"><g><path d="M 22.03125 0 L 12.546875 0 L -0.203125 -37.265625 L 9.078125 -37.265625 L 17.296875 -9.8125 L 25.5 -37.265625 L 34.78125 -37.265625 Z M 22.03125 0 "/></g></g></g><g fill="#ffffff" fill-opacity="1"><g transform="translate(115.041456, 49.15589)"><g><path d="M 11.671875 0 L 2.9375 0 L 2.9375 -37.265625 L 11.671875 -37.265625 Z M 11.671875 0 "/></g></g></g><g fill="#ffffff" fill-opacity="1"><g transform="translate(134.285601, 49.15589)"><g><path d="M 18.421875 0.828125 C 14.578125 0.828125 11.488281 0.191406 9.15625 -1.078125 C 6.832031 -2.347656 5.148438 -4.097656 4.109375 -6.328125 C 3.066406 -8.554688 2.546875 -11.085938 2.546875 -13.921875 L 2.546875 -37.265625 L 11.328125 -37.265625 L 11.328125 -13.921875 C 11.328125 -12.648438 11.519531 -11.492188 11.90625 -10.453125 C 12.300781 -9.410156 13.007812 -8.570312 14.03125 -7.9375 C 15.0625 -7.300781 16.523438 -6.984375 18.421875 -6.984375 C 20.304688 -6.984375 21.753906 -7.300781 22.765625 -7.9375 C 23.773438 -8.570312 24.472656 -9.410156 24.859375 -10.453125 C 25.253906 -11.492188 25.453125 -12.648438 25.453125 -13.921875 L 25.453125 -37.265625 L 34.234375 -37.265625 L 34.234375 -13.921875 C 34.234375 -11.085938 33.710938 -8.554688 32.671875 -6.328125 C 31.628906 -4.097656 29.953125 -2.347656 27.640625 -1.078125 C 25.328125 0.191406 22.253906 0.828125 18.421875 0.828125 Z M 18.421875 0.828125 "/></g></g></g><g fill="#ffffff" fill-opacity="1"><g transform="translate(175.703664, 49.15589)"><g><path d="M 11.671875 0 L 2.9375 0 L 2.9375 -37.265625 L 17 -37.265625 L 23.15625 -10.453125 L 29.25 -37.265625 L 43.375 -37.265625 L 43.375 0 L 34.625 0 L 34.625 -30.28125 L 27.40625 0 L 18.90625 0 L 11.671875 -30.09375 Z M 11.671875 0 "/></g></g></g></g></g><path stroke-linecap="butt" transform="matrix(0.75, -0.000000000000000279, 0.000000000000000279, 0.75, 261.072235, 166.267518)" fill="none" stroke-linejoin="miter" d="M -0.00256274 1.497476 L 139.226613 1.497476 " stroke="#ffffff" stroke-width="3" stroke-opacity="1" stroke-miterlimit="4"/></svg>