<svg xmlns="http://www.w3.org/2000/svg" width="500" height="500" version="1.0" viewBox="0 0 375 375"><defs><clipPath id="a"><path d="M9.508 126.957h143.25v111.75H9.508Zm0 0"/></clipPath><clipPath id="c"><path d="M.508 22H143.43v90.707H.508Zm0 0"/></clipPath><clipPath id="d"><path d="M65 .957h25V26H65Zm0 0"/></clipPath><clipPath id="b"><path d="M0 0h144v113H0z"/></clipPath><clipPath id="e"><path d="M0 0h227v62H0z"/></clipPath></defs><path fill="#fff" d="M-37.5-37.5h450v450h-450z"/><path fill="#fff" d="M-37.5-37.5h450v450h-450z"/><g clip-path="url(#a)"><g clip-path="url(#b)" transform="translate(9 126)"><path fill="#aefe02" d="M73.281 60.992c3.653 1.66 8.258 3.785 14.035 6.5 23.301 10.957 9.227 34.168-28.363 41.945 0 0 61.23-29.847 7.297-36.417.68-1.165 1.36-2.348 2.047-3.543 1.598-2.778 3.215-5.594 4.984-8.485"/><g clip-path="url(#c)"><path fill="#aefe02" d="M56.41 55.766c15.11-35.946 64.055-42.57 86.977-21.09 0 0-35.676-23.871-62.153 8.37C54.758 75.294 63.191 96.384.566 112.787c0 0 36.477-10.934 55.844-57.02"/></g><g clip-path="url(#d)"><path fill="#aefe02" d="M65.262 13.32c0 6.828 5.535 12.364 12.363 12.364 6.828 0 12.36-5.536 12.36-12.364 0-6.828-5.532-12.363-12.36-12.363-6.828 0-12.363 5.535-12.363 12.363"/></g></g></g><g fill="#fff" clip-path="url(#e)" transform="translate(126 165)"><path d="M10.419 49.156H1.138l12.75-37.266h9.484l12.734 37.266h-9.265l-2.016-6.688H12.42Zm8.203-27.547L14.716 34.89h7.812ZM69.176 49.156H43.74V11.89h25.437v7.813H52.473v6.937h15.094v7.766H52.473v6.937h16.703ZM97.901 49.156h-9.484L75.667 11.89h9.281l8.219 27.453 8.203-27.453h9.281ZM126.713 49.156h-8.734V11.89h8.734ZM152.707 49.984c-3.843 0-6.933-.637-9.265-1.906-2.324-1.27-4.008-3.02-5.047-5.25-1.043-2.227-1.563-4.758-1.563-7.594V11.89h8.782v23.344c0 1.273.191 2.43.578 3.469.394 1.043 1.101 1.883 2.125 2.515 1.031.637 2.492.954 4.39.954 1.883 0 3.333-.317 4.344-.954 1.008-.632 1.707-1.472 2.094-2.515.395-1.04.594-2.196.594-3.469V11.89h8.781v23.344c0 2.836-.523 5.367-1.563 7.594-1.042 2.23-2.718 3.98-5.03 5.25-2.313 1.27-5.387 1.906-9.22 1.906ZM187.376 49.156h-8.735V11.89h14.063l6.156 26.813 6.094-26.813h14.125v37.266h-8.75V18.875l-7.22 30.28h-8.5l-7.233-30.093Zm0 0"/></g><path fill="none" stroke="#fff" stroke-width="2.25" d="M261.07 167.39h104.422"/></svg>